<svg width="186" height="48" viewBox="0 0 186 48" fill="none" xmlns="http://www.w3.org/2000/svg">
<path d="M72.5365 26.0624C72.0736 26.3418 71.6646 26.544 71.3097 26.6689C70.9548 26.7939 70.6325 26.8623 70.3429 26.8742C70.0604 26.8902 69.8008 26.8581 69.5643 26.7781C69.3277 26.6981 69.0928 26.5907 68.8595 26.456C68.5556 26.2806 68.2846 26.0723 68.0468 25.8313C67.8048 25.5973 67.6314 25.3181 67.5265 24.9937C67.4258 24.6622 67.4117 24.2865 67.4845 23.8666C67.5354 23.5838 67.6393 23.2736 67.7963 22.936C67.9374 22.6325 68.3122 22.5349 68.6021 22.7022V22.7022C68.892 22.8696 68.9845 23.2378 68.8541 23.5461C68.6939 23.9248 68.6282 24.2526 68.657 24.5295C68.7028 24.9235 68.9272 25.2368 69.3301 25.4695C69.5422 25.5919 69.7423 25.6698 69.9305 25.703C70.1228 25.7292 70.3116 25.7204 70.4971 25.6767C70.6896 25.637 70.8859 25.5665 71.0858 25.4651C71.1366 25.4413 71.1887 25.4161 71.2421 25.3897C71.4779 25.2733 71.481 24.944 71.2533 24.8125V24.8125C71.1529 24.7546 71.0892 24.6493 71.0844 24.5336L70.8212 18.1829C70.8085 17.878 70.6574 17.5956 70.4107 17.4159L69.6367 16.8523L71.5556 17.871C71.8698 18.0378 72.0717 18.3589 72.0859 18.7143L72.2603 23.0849C72.2907 23.8467 73.1282 24.2957 73.7795 23.8993L77.4925 21.6392C77.6818 21.524 77.9189 21.5212 78.1107 21.632V21.632C78.5098 21.8624 78.516 22.4362 78.122 22.6752L72.5365 26.0624Z" fill="#DDF2FF"/>
<path d="M63.9419 21.1004C63.479 21.3798 63.0701 21.582 62.7152 21.707C62.3602 21.8319 62.038 21.9004 61.7484 21.9122C61.4658 21.9282 61.2063 21.8962 60.9697 21.8161C60.7331 21.7361 60.4982 21.6288 60.2649 21.4941C59.961 21.3186 59.6901 21.1103 59.4522 20.8693C59.2102 20.6354 59.0368 20.3562 58.932 20.0317C58.8312 19.7002 58.8172 19.3245 58.8899 18.9047C58.9408 18.6218 59.0447 18.3116 59.2017 17.9741C59.3428 17.6705 59.7177 17.5729 60.0075 17.7403V17.7403C60.2974 17.9076 60.3899 18.2758 60.2595 18.5841C60.0993 18.9628 60.0336 19.2906 60.0624 19.5675C60.1083 19.9615 60.3326 20.2749 60.7356 20.5075C60.9476 20.6299 61.1478 20.7078 61.3359 20.741C61.5282 20.7672 61.717 20.7584 61.9025 20.7147C62.0951 20.675 62.2913 20.6045 62.4912 20.5032C62.5421 20.4793 62.5942 20.4541 62.6477 20.4277C62.8834 20.3112 62.8865 19.9821 62.6588 19.8506V19.8506C62.5584 19.7927 62.4947 19.6873 62.49 19.5714L62.236 13.2973C62.2239 12.9981 62.0783 12.72 61.8393 12.5396L60.5323 11.5529L62.976 12.9057C63.2817 13.075 63.4769 13.3916 63.4909 13.7407L63.6657 18.123C63.6961 18.8848 64.5336 19.3337 65.1849 18.9373L68.6454 16.8309C68.9852 16.6241 69.4153 16.6384 69.7407 16.8673L71.2258 17.9122L70.5735 17.5562C70.2565 17.3832 69.8708 17.3946 69.5645 17.5861L63.9419 21.1004Z" fill="#DDF2FF"/>
<path d="M55.3486 16.1382C54.8857 16.4176 54.4767 16.6198 54.1218 16.7448C53.7669 16.8698 53.4446 16.9382 53.155 16.9501C52.8725 16.966 52.6129 16.934 52.3764 16.854C52.1398 16.7739 51.9049 16.6666 51.6716 16.5319C51.3676 16.3564 51.0967 16.1482 50.8589 15.9071C50.6169 15.6732 50.4435 15.394 50.3386 15.0696C50.2379 14.738 50.2238 14.3623 50.2966 13.9425C50.3475 13.6596 50.4514 13.3494 50.6084 13.0119C50.7495 12.7084 51.1243 12.6107 51.4142 12.7781V12.7781C51.7041 12.9455 51.7966 13.3136 51.6662 13.6219C51.506 14.0007 51.4403 14.3285 51.4691 14.6053C51.5149 14.9994 51.7393 15.3127 52.1422 15.5453C52.3543 15.6678 52.5544 15.7456 52.7426 15.7789C52.9349 15.805 53.1237 15.7962 53.3092 15.7525C53.5017 15.7129 53.698 15.6424 53.8979 15.541C53.9488 15.5171 54.001 15.4919 54.0545 15.4655C54.2901 15.349 54.2932 15.02 54.0656 14.8885V14.8885C53.9651 14.8305 53.9014 14.7251 53.8968 14.6091L53.6577 8.60439C53.6384 8.11967 54.161 7.80392 54.5812 8.04647V8.04647C54.7641 8.15212 54.8802 8.3442 54.8886 8.55533L55.0724 13.1608C55.1028 13.9226 55.9403 14.3715 56.5916 13.9751L60.0925 11.8442C60.4114 11.65 60.812 11.6497 61.1312 11.8435L63.1707 13.0811L61.8575 12.5081C61.5521 12.3749 61.2003 12.4025 60.9195 12.5818L55.3486 16.1382Z" fill="#DDF2FF"/>
<path d="M83.5796 23.3067C83.3566 29.1426 81.6652 33.4174 78.5056 36.1309C75.3461 38.8073 70.681 40.1455 64.5105 40.1455C58.34 40.1455 53.6564 38.7887 50.4596 36.0752C47.3 33.3244 45.6273 29.0683 45.4414 23.3067L46.1114 2.9116C46.1279 2.41011 46.4309 1.96263 46.8904 1.76109L49.0792 0.801057C49.9403 0.423415 50.9056 1.05416 50.9056 1.99436V20.7418C50.9056 22.8606 51.0543 24.8121 51.3517 26.5964C51.6491 28.3806 52.2624 29.9232 53.1917 31.2242C54.1582 32.4881 55.5149 33.4731 57.262 34.1794C59.0463 34.8857 61.4438 35.2388 64.4547 35.2388C67.4656 35.2388 69.8632 34.9042 71.6475 34.2352C73.4689 33.5289 74.8442 32.5438 75.7735 31.28C76.74 30.0162 77.3719 28.5107 77.6693 26.7636C77.9667 24.9794 78.1153 23.0093 78.1153 20.8533V1.89378C78.1153 0.980287 79.0309 0.350337 79.8841 0.676802L82.7422 1.77049C83.2465 1.96347 83.5796 2.4475 83.5796 2.98747V23.3067Z" fill="#D4B9FF"/>
<path d="M12.6885 27.2097C12.1914 27.2097 11.7376 27.4925 11.5187 27.9388L6.43527 38.3012C6.21633 38.7475 5.76253 39.0303 5.26542 39.0303H2.0949C1.12951 39.0303 0.499336 38.0172 0.926116 37.1512L18.8781 0.726987C19.0974 0.281869 19.5506 0 20.0469 0H27.6309C28.1532 0 28.625 0.311838 28.8297 0.792318L39.6284 26.1398C40.1288 27.3144 41.8446 27.1432 42.1032 25.893L46.8358 3.01091L43.7974 40.4923C43.6863 41.8631 41.8027 42.1491 41.2897 40.8731L36.1248 28.0267C35.9264 27.5331 35.4478 27.2097 34.9158 27.2097H12.6885ZM15.259 20.4227C14.831 21.2887 15.4611 22.303 16.4272 22.303H31.251C32.2157 22.303 32.8459 21.2912 32.4205 20.4254L25.0303 5.3842C24.5537 4.41423 23.1715 4.41262 22.6927 5.38148L15.259 20.4227Z" fill="#D4B9FF"/>
<path d="M14.0779 22.3032C14.0779 24.2278 10.4239 29.2729 8.49927 29.2729C6.57464 29.2729 8.50179 26.3187 8.50179 24.3941C8.50179 22.4695 11.4524 18.5468 13.377 18.5468C15.3017 18.5468 14.0779 20.3785 14.0779 22.3032Z" fill="#FFD7DB"/>
<path d="M24.5333 2.09091C24.5333 3.63061 19.8002 8.36371 18.2605 8.36371C16.7208 8.36371 18.2594 5.72145 18.2594 4.18175C18.2594 2.64205 18.8151 1.39402 20.3548 1.39402C21.8945 1.39402 24.5333 0.551208 24.5333 2.09091Z" fill="#FFD7DB"/>
<path d="M43.3525 27.1817C43.3525 29.1063 43.1862 34.8484 41.2616 34.8484C39.337 34.8484 36.3828 28.4094 36.3828 26.4847C36.3828 24.5601 38.64 27.8787 40.5646 27.8787C42.4893 27.8787 43.3525 25.2571 43.3525 27.1817Z" fill="#FFD7DB"/>
<path d="M83.0783 5.57564C83.0783 6.73042 82.1422 11.1514 80.9874 11.1514C79.8326 11.1514 78.8965 8.82133 78.8965 7.66656C78.8965 6.51178 79.8326 6.27257 80.9874 6.27257C82.1422 6.27257 83.0783 4.42086 83.0783 5.57564Z" fill="#FFD7DB"/>
<path d="M64.2604 37.6366C64.2604 38.7914 62.6273 39.7275 61.4725 39.7275C60.3178 39.7275 56.5938 36.7004 56.5938 35.5456C56.5938 34.3908 58.9238 36.2426 60.0786 36.2426C61.2334 36.2426 64.2604 36.4818 64.2604 37.6366Z" fill="#FFD7DB"/>
<path d="M50.3202 15.3334C50.3202 16.8731 49.769 19.5153 48.2293 19.5153C46.6896 19.5153 45.4414 14.7822 45.4414 13.2425C45.4414 11.7028 46.6896 12.5456 48.2293 12.5456C49.769 12.5456 50.3202 13.7937 50.3202 15.3334Z" fill="#FFD7DB"/>
<path d="M79.9766 30.6016C79.9766 27.9323 80.7415 25.8734 82.2715 24.4248C83.8014 22.96 85.722 22.2275 88.0332 22.2275C90.1328 22.2275 91.793 22.7565 93.0137 23.8145C94.2344 24.8561 94.8447 26.0931 94.8447 27.5254H92.4766C92.4766 26.679 92.0778 25.8896 91.2803 25.1572C90.499 24.4248 89.4248 24.0586 88.0576 24.0586C86.4626 24.0586 85.0872 24.6445 83.9316 25.8164C82.776 26.972 82.1982 28.5671 82.1982 30.6016C82.1982 32.6523 82.7842 34.3044 83.9561 35.5576C85.1279 36.7946 86.4951 37.4131 88.0576 37.4131C89.4085 37.4131 90.4909 37.0062 91.3047 36.1924C92.1348 35.3786 92.5498 34.5485 92.5498 33.7021H94.8691C94.8691 35.1507 94.2507 36.4365 93.0137 37.5596C91.7767 38.6826 90.1165 39.2441 88.0332 39.2441C85.7383 39.2441 83.8177 38.4792 82.2715 36.9492C80.7415 35.403 79.9766 33.2871 79.9766 30.6016ZM96.334 24.4248V22.4717H108.663V24.4248H103.536V39H101.461V24.4248H96.334ZM110.86 39V22.4717H112.936V39H110.86ZM117.818 30.6016C117.818 32.5872 118.388 34.223 119.527 35.5088C120.667 36.7783 122.05 37.4131 123.678 37.4131C125.305 37.4131 126.689 36.7783 127.828 35.5088C128.967 34.223 129.537 32.5872 129.537 30.6016C129.537 28.6322 128.967 27.0534 127.828 25.8652C126.705 24.6608 125.322 24.0586 123.678 24.0586C122.034 24.0586 120.642 24.6608 119.503 25.8652C118.38 27.0534 117.818 28.6322 117.818 30.6016ZM115.621 30.6016C115.621 27.9974 116.37 25.9548 117.867 24.4736C119.365 22.9762 121.301 22.2275 123.678 22.2275C126.054 22.2275 127.991 22.9762 129.488 24.4736C130.986 25.9548 131.734 27.9974 131.734 30.6016C131.734 33.222 130.978 35.3216 129.464 36.9004C127.966 38.4629 126.038 39.2441 123.678 39.2441C121.318 39.2441 119.381 38.4629 117.867 36.9004C116.37 35.3216 115.621 33.222 115.621 30.6016ZM134.42 39V22.4717H136.617L145.65 35.9238V22.4717H147.726V39H145.528L136.495 25.5723V39H134.42Z" fill="#FFD7DB"/>
</svg>
