<svg width="32" height="32" viewBox="0 0 32 32" fill="none" xmlns="http://www.w3.org/2000/svg">
<path d="M22.7339 20.7744C22.3455 20.9971 22.0024 21.1583 21.7046 21.2579C21.4068 21.3575 21.1364 21.4121 20.8934 21.4215C20.6563 21.4342 20.4385 21.4087 20.24 21.3449C20.0416 21.2811 19.8444 21.1956 19.6487 21.0882C19.3937 20.9483 19.1664 20.7823 18.9668 20.5902C18.7638 20.4037 18.6183 20.1812 18.5303 19.9226C18.4457 19.6583 18.434 19.3588 18.495 19.0242C18.5371 18.8019 18.6225 18.5584 18.7511 18.2937C18.8718 18.0452 19.1895 17.9626 19.4327 18.096V18.096C19.676 18.2294 19.7502 18.5277 19.6391 18.7802C19.5083 19.0772 19.4549 19.3346 19.4788 19.5525C19.5172 19.8666 19.7055 20.1164 20.0436 20.3018C20.2215 20.3994 20.3894 20.4614 20.5473 20.4879C20.7086 20.5088 20.8671 20.5018 21.0227 20.4669C21.1843 20.4353 21.3489 20.3792 21.5167 20.2983C21.5557 20.2809 21.5957 20.2626 21.6367 20.2435C21.838 20.1493 21.8454 19.8814 21.6544 19.7766V19.7766C21.5718 19.7313 21.5196 19.6484 21.5155 19.5562L21.2983 14.5762C21.2854 14.2807 21.1342 14.0096 20.887 13.8385L20.3008 13.433L21.8303 14.2044C22.1444 14.3628 22.3454 14.6701 22.3599 15.0138L22.4909 18.1335C22.5219 18.8699 23.356 19.2935 24.0197 18.9097L26.892 17.2488C27.0513 17.1567 27.2479 17.1535 27.4062 17.2403V17.2403C27.7411 17.424 27.7383 17.8913 27.4011 18.0856L22.7339 20.7744Z" fill="#DDF2FF"/>
<path d="M15.5211 16.8191C15.1326 17.0418 14.7895 17.203 14.4917 17.3026C14.1939 17.4022 13.9235 17.4568 13.6805 17.4662C13.4435 17.479 13.2257 17.4534 13.0272 17.3896C12.8287 17.3258 12.6316 17.2403 12.4359 17.1329C12.1808 16.993 11.9535 16.827 11.7539 16.6349C11.5509 16.4484 11.4054 16.2259 11.3175 15.9673C11.2329 15.703 11.2211 15.4036 11.2822 15.0689C11.3243 14.8466 11.4096 14.6031 11.5382 14.3384C11.659 14.09 11.9767 14.0073 12.2199 14.1407V14.1407C12.4631 14.2742 12.5373 14.5725 12.4262 14.8249C12.2955 15.1219 12.2421 15.3794 12.266 15.5972C12.3044 15.9113 12.4927 16.1611 12.8308 16.3465C13.0087 16.4441 13.1766 16.5062 13.3345 16.5327C13.4958 16.5535 13.6543 16.5465 13.8099 16.5117C13.9714 16.4801 14.1361 16.4239 14.3038 16.3431C14.343 16.3256 14.383 16.3073 14.4239 16.2881C14.6253 16.194 14.6327 15.9262 14.4417 15.8214V15.8214C14.359 15.7761 14.3068 15.693 14.3029 15.6008L14.0931 10.6803C14.0808 10.3902 13.9351 10.1232 13.6955 9.9513L12.6602 9.20877L14.6323 10.2459C14.938 10.4067 15.1324 10.7097 15.1466 11.0475L15.2781 14.1782C15.309 14.9146 16.1432 15.3382 16.8069 14.9545L19.3675 13.4738C19.7142 13.2733 20.1463 13.2843 20.4718 13.5019L21.6326 14.2778L21.1683 14.0371C20.8506 13.8723 20.4617 13.8854 20.1486 14.0714L15.5211 16.8191Z" fill="#DDF2FF"/>
<path d="M8.31148 12.8638C7.92306 13.0865 7.57996 13.2476 7.28216 13.3473C6.98437 13.4469 6.71397 13.5014 6.47097 13.5109C6.2339 13.5236 6.01612 13.4981 5.81763 13.4343C5.61915 13.3705 5.42204 13.2849 5.22631 13.1776C4.97126 13.0377 4.74395 12.8717 4.54436 12.6796C4.34136 12.4931 4.19586 12.2705 4.10787 12.0119C4.02331 11.7477 4.01155 11.4482 4.07258 11.1135C4.11469 10.8912 4.20005 10.6477 4.32865 10.3831C4.44938 10.1346 4.7671 10.052 5.01033 10.1854V10.1854C5.25355 10.3188 5.32776 10.6171 5.21666 10.8695C5.08594 11.1666 5.03251 11.424 5.05638 11.6419C5.09484 11.956 5.2831 12.2057 5.62119 12.3912C5.79913 12.4888 5.96704 12.5508 6.12492 12.5773C6.28623 12.5982 6.4447 12.5912 6.60032 12.5563C6.76187 12.5247 6.92652 12.4685 7.09425 12.3877C7.13341 12.3702 7.17348 12.3519 7.21446 12.3327C7.41576 12.2386 7.42314 11.9708 7.23222 11.8661V11.8661C7.14951 11.8207 7.09725 11.7376 7.09338 11.6453L6.8937 6.88065C6.87722 6.48751 7.32055 6.22347 7.67276 6.41665V6.41665C7.82332 6.49923 7.91847 6.65053 7.92552 6.81859L8.06851 10.2229C8.09944 10.9593 8.93364 11.3828 9.59727 10.9991L12.1983 9.49504C12.524 9.30671 12.9271 9.30417 13.2467 9.48844L14.8746 10.4269L13.853 10.0035C13.5463 9.87632 13.1907 9.90464 12.9029 10.0791L8.31148 12.8638Z" fill="#DDF2FF"/>
<path d="M32 18.5778C31.8129 23.2296 30.3938 26.637 27.7427 28.8C25.0916 30.9333 21.1774 32 16 32C10.8226 32 6.89279 30.9185 4.21052 28.7556C1.55945 26.563 0.155945 23.1704 0 18.5778L0.555885 2.50269C0.5735 1.99331 0.886492 1.54096 1.35697 1.34493L2.7806 0.751749C3.63889 0.394128 4.58479 1.02473 4.58479 1.95455V16.5333C4.58479 18.2222 4.70955 19.7778 4.95906 21.2C5.20857 22.6222 5.72319 23.8519 6.50292 24.8889C7.31384 25.8963 8.45224 26.6815 9.91813 27.2444C11.4152 27.8074 13.4269 28.0889 15.9532 28.0889C18.4795 28.0889 20.4912 27.8222 21.9883 27.2889C23.5166 26.7259 24.6706 25.9407 25.4503 24.9333C26.2612 23.9259 26.7914 22.7259 27.0409 21.3333C27.2904 19.9111 27.4152 18.3407 27.4152 16.6222V1.86014C27.4152 0.955935 28.3136 0.326591 29.1634 0.635508L31.1421 1.35482C31.6572 1.54204 32 2.03146 32 2.57944V18.5778Z" fill="#D4B9FF"/>
<path d="M31.5791 4.4444C31.5791 5.36487 30.7936 8.88884 29.8247 8.88884C28.8558 8.88884 28.0703 7.03155 28.0703 6.11107C28.0703 5.1906 28.8558 4.99992 29.8247 4.99992C30.7936 4.99992 31.5791 3.52393 31.5791 4.4444Z" fill="#FFD7DB"/>
<path d="M15.7902 30.0002C15.7902 30.9206 14.4199 31.6668 13.451 31.6668C12.4821 31.6668 9.35742 29.2539 9.35742 28.3334C9.35742 27.413 11.3125 28.889 12.2814 28.889C13.2503 28.889 15.7902 29.0797 15.7902 30.0002Z" fill="#FFD7DB"/>
<path d="M4.09357 12.2222C4.09357 13.4495 3.63108 15.5557 2.33918 15.5557C1.04729 15.5557 0 11.7829 0 10.5556C0 9.32834 1.04729 10.0001 2.33918 10.0001C3.63108 10.0001 4.09357 10.9949 4.09357 12.2222Z" fill="#FFD7DB"/>
</svg>
